<?xml version="1.0" encoding="UTF-8" standalone="no"?>
<svg width="150px" height="150px" xmlns="http://www.w3.org/2000/svg" version="1.1">
    <title>foursquare</title>
    <description>Created with Sketch (http://www.bohemiancoding.com/sketch)</description>
    <defs>
        <linearGradient id="gradient-1" x1="50%" y1="0%" x2="50%" y2="100%">
            <stop offset="0%" style="stop-color:rgb(255,255,255); stop-opacity:100"></stop>
            <stop offset="100%" style="stop-color:rgb(0,0,0); stop-opacity:100"></stop>
        </linearGradient>
        <linearGradient id="gradient-2" x1="50%" y1="0%" x2="50%" y2="100%">
            <stop offset="0%" style="stop-color:rgb(255,255,255); stop-opacity:100"></stop>
            <stop offset="100%" style="stop-color:rgb(0,0,0); stop-opacity:100"></stop>
        </linearGradient>
        <linearGradient id="gradient-3" x1="50%" y1="0%" x2="50%" y2="100%">
            <stop offset="0%" style="stop-color:rgb(255,255,255); stop-opacity:100"></stop>
            <stop offset="100%" style="stop-color:rgb(0,0,0); stop-opacity:100"></stop>
        </linearGradient>
        <linearGradient id="gradient-4" x1="50%" y1="0%" x2="50%" y2="100%">
            <stop offset="0%" style="stop-color:rgb(255,255,255); stop-opacity:100"></stop>
            <stop offset="100%" style="stop-color:rgb(0,0,0); stop-opacity:100"></stop>
        </linearGradient>
    </defs>
    <g fill="rgb(215,215,215)" id="Page 1">
        <g opacity="0.400000" fill="rgb(0,0,0)" id="foursquare"></g>
        <path id="foursquare" d="M127,50 L84,96 L78,87 C75,92 70,96 64,99 L84,116 L127,81 L127,81 L127,50 M23,68 C23,82 34,94 49,94 C63,94 75,82 75,68 C75,53 63,42 49,42 C34,42 23,53 23,68 C23,68 23,53 23,68 L23,68" opacity="0.400000" fill="rgb(0,0,0)"></path>
        <path id="foursquare decoration" d="" opacity="0.400000" fill="rgb(0,0,0)"></path>
    </g>
</svg>