<?xml version="1.0" encoding="UTF-8" standalone="no"?>
<svg width="150px" height="150px" xmlns="http://www.w3.org/2000/svg" version="1.1">
    <title>github</title>
    <description>Created with Sketch (http://www.bohemiancoding.com/sketch)</description>
    <defs>
        <linearGradient id="gradient-1" x1="50%" y1="0%" x2="50%" y2="100%">
            <stop offset="0%" style="stop-color:rgb(255,255,255); stop-opacity:100"></stop>
            <stop offset="100%" style="stop-color:rgb(0,0,0); stop-opacity:100"></stop>
        </linearGradient>
        <linearGradient id="gradient-2" x1="50%" y1="0%" x2="50%" y2="100%">
            <stop offset="0%" style="stop-color:rgb(255,255,255); stop-opacity:100"></stop>
            <stop offset="100%" style="stop-color:rgb(0,0,0); stop-opacity:100"></stop>
        </linearGradient>
        <linearGradient id="gradient-3" x1="50%" y1="0%" x2="50%" y2="100%">
            <stop offset="0%" style="stop-color:rgb(255,255,255); stop-opacity:100"></stop>
            <stop offset="100%" style="stop-color:rgb(0,0,0); stop-opacity:100"></stop>
        </linearGradient>
        <linearGradient id="gradient-4" x1="50%" y1="0%" x2="50%" y2="100%">
            <stop offset="0%" style="stop-color:rgb(255,255,255); stop-opacity:100"></stop>
            <stop offset="100%" style="stop-color:rgb(0,0,0); stop-opacity:100"></stop>
        </linearGradient>
        <linearGradient id="gradient-5" x1="50%" y1="0%" x2="50%" y2="100%">
            <stop offset="0%" style="stop-color:rgb(255,255,255); stop-opacity:100"></stop>
            <stop offset="100%" style="stop-color:rgb(0,0,0); stop-opacity:100"></stop>
        </linearGradient>
        <linearGradient id="gradient-6" x1="50%" y1="0%" x2="50%" y2="100%">
            <stop offset="0%" style="stop-color:rgb(255,255,255); stop-opacity:100"></stop>
            <stop offset="100%" style="stop-color:rgb(0,0,0); stop-opacity:100"></stop>
        </linearGradient>
    </defs>
    <g fill="rgb(215,215,215)" id="Page 1">
        <g opacity="0.400000" fill="rgb(0,0,0)" id="github"></g>
        <path id="github" d="M115,59 C116,54 117,44 114,38 C105,38 97,43 93,46 C88,44 82,43 75,43 C68,43 62,44 56,46 C53,43 45,38 36,38 C33,45 34,54 35,59 C31,64 29,71 29,78 C29,105 46,115 75,115 C104,115 122,105 122,78 C122,71 119,64 115,59 C115,59 119,64 115,59 L115,59 M75,109 C50,109 41,101 41,90 C41,76 52,73 58,73 C63,73 63,74 75,74 C87,74 87,73 92,73 C98,73 109,76 109,90 C109,101 100,109 75,109 L75,109 L75,109 M94,91 C94,84 92,82 90,82 C87,82 85,84 85,91 C85,98 87,100 90,100 C92,100 94,98 94,91 C94,91 94,98 94,91 L94,91 M65,91 C65,84 63,82 60,82 C58,82 56,84 56,91 C56,98 58,100 60,100 C63,100 65,98 65,91 C65,91 65,98 65,91 L65,91" opacity="0.400000" fill="rgb(0,0,0)"></path>
        <path id="github decoration" d="" opacity="0.400000" fill="rgb(0,0,0)"></path>
    </g>
</svg>