<?xml version="1.0" encoding="UTF-8" standalone="no"?>
<svg width="150px" height="150px" xmlns="http://www.w3.org/2000/svg" version="1.1">
    <title>skype</title>
    <description>Created with Sketch (http://www.bohemiancoding.com/sketch)</description>
    <defs>
        <linearGradient id="gradient-1" x1="50%" y1="0%" x2="50%" y2="100%">
            <stop offset="0%" style="stop-color:rgb(255,255,255); stop-opacity:100"></stop>
            <stop offset="100%" style="stop-color:rgb(0,0,0); stop-opacity:100"></stop>
        </linearGradient>
        <linearGradient id="gradient-2" x1="50%" y1="0%" x2="50%" y2="100%">
            <stop offset="0%" style="stop-color:rgb(255,255,255); stop-opacity:100"></stop>
            <stop offset="100%" style="stop-color:rgb(0,0,0); stop-opacity:100"></stop>
        </linearGradient>
        <linearGradient id="gradient-3" x1="50%" y1="0%" x2="50%" y2="100%">
            <stop offset="0%" style="stop-color:rgb(255,255,255); stop-opacity:100"></stop>
            <stop offset="100%" style="stop-color:rgb(0,0,0); stop-opacity:100"></stop>
        </linearGradient>
        <linearGradient id="gradient-4" x1="50%" y1="0%" x2="50%" y2="100%">
            <stop offset="0%" style="stop-color:rgb(255,255,255); stop-opacity:100"></stop>
            <stop offset="100%" style="stop-color:rgb(0,0,0); stop-opacity:100"></stop>
        </linearGradient>
    </defs>
    <g fill="rgb(215,215,215)" id="Page 1">
        <g opacity="0.400000" fill="rgb(0,0,0)" id="skype"></g>
        <path id="skype" d="M113,81 C113,78 113,76 113,74 C113,53 96,35 74,35 C72,35 70,35 68,36 C64,33 59,32 55,32 C42,32 32,42 32,55 C32,59 33,64 36,68 C35,70 35,72 35,74 C35,96 53,113 74,113 C76,113 78,113 81,113 C84,115 89,117 94,117 C106,117 117,106 117,94 C117,89 115,84 113,81 C113,81 115,84 113,81 L113,81 M75,101 C62,101 51,95 51,88 C51,85 53,82 57,82 C63,82 64,91 74,91 C79,91 83,89 83,86 C83,82 79,82 74,80 L66,78 C58,76 51,73 51,63 C51,52 63,47 73,47 C83,47 94,52 94,58 C94,62 92,64 88,64 C83,64 83,58 74,58 C69,58 66,59 66,62 C66,66 69,66 73,67 L79,69 C85,70 97,73 97,84 C97,95 86,101 75,101 L75,101 L75,101" opacity="0.400000" fill="rgb(0,0,0)"></path>
        <path id="skype decoration" d="" opacity="0.400000" fill="rgb(0,0,0)"></path>
    </g>
</svg>