<?xml version="1.0" encoding="UTF-8" standalone="no"?>
<svg width="150px" height="150px" xmlns="http://www.w3.org/2000/svg" version="1.1">
    <title>twitter</title>
    <description>Created with Sketch (http://www.bohemiancoding.com/sketch)</description>
    <defs>
        <linearGradient id="gradient-1" x1="50%" y1="0%" x2="50%" y2="100%">
            <stop offset="0%" style="stop-color:rgb(255,255,255); stop-opacity:100"></stop>
            <stop offset="100%" style="stop-color:rgb(0,0,0); stop-opacity:100"></stop>
        </linearGradient>
        <linearGradient id="gradient-2" x1="50%" y1="0%" x2="50%" y2="100%">
            <stop offset="0%" style="stop-color:rgb(255,255,255); stop-opacity:100"></stop>
            <stop offset="100%" style="stop-color:rgb(0,0,0); stop-opacity:100"></stop>
        </linearGradient>
        <linearGradient id="gradient-3" x1="50%" y1="0%" x2="50%" y2="100%">
            <stop offset="0%" style="stop-color:rgb(255,255,255); stop-opacity:100"></stop>
            <stop offset="100%" style="stop-color:rgb(0,0,0); stop-opacity:100"></stop>
        </linearGradient>
    </defs>
    <g fill="rgb(215,215,215)" id="Page 1">
        <g opacity="0.400000" fill="rgb(0,0,0)" id="twitter"></g>
        <path id="twitter" d="M119,46 C116,48 112,49 109,49 C113,47 115,43 117,39 C113,41 109,43 105,44 C102,40 97,38 92,38 C82,38 74,46 74,57 C74,58 74,60 74,61 C59,60 46,53 37,41 C35,44 34,47 34,51 C34,57 37,63 42,66 C39,66 37,65 34,64 L34,64 C34,74 40,81 49,83 C47,83 45,84 44,84 C43,84 42,84 40,83 C43,91 49,96 57,97 C51,102 43,106 35,106 C33,106 32,106 31,105 C39,111 48,113 58,113 C92,113 110,84 110,59 L110,56 C114,54 117,50 119,46 C119,46 117,50 119,46 L119,46" opacity="0.400000" fill="rgb(0,0,0)"></path>
        <path id="twitter decoration" d="" opacity="0.400000" fill="rgb(0,0,0)"></path>
    </g>
</svg>