<?xml version="1.0" encoding="UTF-8" standalone="no"?>
<svg width="150px" height="150px" xmlns="http://www.w3.org/2000/svg" version="1.1">
    <title>lastfm</title>
    <description>Created with Sketch (http://www.bohemiancoding.com/sketch)</description>
    <defs>
        <linearGradient id="gradient-1" x1="50%" y1="0%" x2="50%" y2="100%">
            <stop offset="0%" style="stop-color:rgb(255,255,255); stop-opacity:100"></stop>
            <stop offset="100%" style="stop-color:rgb(0,0,0); stop-opacity:100"></stop>
        </linearGradient>
        <linearGradient id="gradient-2" x1="50%" y1="0%" x2="50%" y2="100%">
            <stop offset="0%" style="stop-color:rgb(255,255,255); stop-opacity:100"></stop>
            <stop offset="100%" style="stop-color:rgb(0,0,0); stop-opacity:100"></stop>
        </linearGradient>
        <linearGradient id="gradient-3" x1="50%" y1="0%" x2="50%" y2="100%">
            <stop offset="0%" style="stop-color:rgb(255,255,255); stop-opacity:100"></stop>
            <stop offset="100%" style="stop-color:rgb(0,0,0); stop-opacity:100"></stop>
        </linearGradient>
    </defs>
    <g fill="rgb(215,215,215)" id="Page 1">
        <g opacity="0.400000" fill="rgb(0,0,0)" id="lastfm"></g>
        <path id="lastfm" d="M99,91 C86,91 83,83 80,73 C75,57 70,49 52,49 C40,49 29,56 29,75 C28,94 40,100 52,100 C63,100 69,94 69,94 L66,85 C66,85 61,91 52,91 C46,91 40,86 40,74 C40,64 45,57 53,57 C64,57 66,67 70,78 C72,86 76,100 98,100 C115,100 121,94 121,85 C121,64 94,74 94,62 C94,59 97,57 102,57 C107,57 109,59 110,63 L120,62 C119,51 111,49 102,49 C92,49 83,53 83,64 C83,83 110,74 110,86 C110,90 106,91 99,91 L99,91 L99,91" opacity="0.400000" fill="rgb(0,0,0)"></path>
        <path id="lastfm decoration" d="" opacity="0.400000" fill="rgb(0,0,0)"></path>
    </g>
</svg>